<svg xmlns="http://www.w3.org/2000/svg" style="display:none">
<defs>

<symbol id="icon-pulse" viewBox="0 0 24 24"><path d="M3 12h4l2 7 4-14 2 7h6" fill="none" stroke="currentColor" stroke-width="1.8" stroke-linecap="round" stroke-linejoin="round"/></symbol>

<symbol id="icon-globe" viewBox="0 0 24 24"><circle cx="12" cy="12" r="9" fill="none" stroke="currentColor" stroke-width="1.8"/><path d="M3 12h18M12 3c2.8 2.6 4.2 5.7 4.2 9s-1.4 6.4-4.2 9c-2.8-2.6-4.2-5.7-4.2-9S9.2 5.6 12 3Z" fill="none" stroke="currentColor" stroke-width="1.8" stroke-linecap="round" stroke-linejoin="round"/></symbol>

<symbol id="icon-wheat" viewBox="0 0 24 24"><path d="M12 21V6M12 6c-2 0-3.5-1.5-3.5-3.5C10.5 3 12 4.5 12 6Zm0 0c0-2 1.5-3.5 3.5-3.5C15.5 4.5 14 6 12 6Zm0 5c-2 0-3.5-1.5-3.5-3.5C10.5 8 12 9.5 12 11Zm0 0c0-2 1.5-3.5 3.5-3.5C15.5 9.5 14 11 12 11Zm0 5c-2 0-3.5-1.5-3.5-3.5C10.5 13 12 14.5 12 16Zm0 0c0-2 1.5-3.5 3.5-3.5C15.5 14.5 14 16 12 16Z" fill="none" stroke="currentColor" stroke-width="1.6" stroke-linecap="round" stroke-linejoin="round"/></symbol>

<symbol id="icon-shield" viewBox="0 0 24 24"><path d="M12 3l7 3v6c0 4.5-3 7.5-7 9-4-1.5-7-4.5-7-9V6l7-3Z" fill="none" stroke="currentColor" stroke-width="1.8" stroke-linejoin="round"/><path d="M9.5 12l1.8 1.8L14.5 10" fill="none" stroke="currentColor" stroke-width="1.8" stroke-linecap="round" stroke-linejoin="round"/></symbol>

<symbol id="icon-cap" viewBox="0 0 24 24"><path d="M2 9l10-4 10 4-10 4-10-4Z" fill="none" stroke="currentColor" stroke-width="1.8" stroke-linejoin="round"/><path d="M6 11v4c0 1.7 2.7 3 6 3s6-1.3 6-3v-4" fill="none" stroke="currentColor" stroke-width="1.8" stroke-linecap="round" stroke-linejoin="round"/><path d="M21 9v6" fill="none" stroke="currentColor" stroke-width="1.8" stroke-linecap="round"/></symbol>

<symbol id="icon-clipboard" viewBox="0 0 24 24"><rect x="5" y="4" width="14" height="17" rx="2" fill="none" stroke="currentColor" stroke-width="1.8"/><rect x="9" y="2.3" width="6" height="3.4" rx="1" fill="none" stroke="currentColor" stroke-width="1.8"/><path d="M8.5 11.5l2 2 4-4.2M8.5 17h6" fill="none" stroke="currentColor" stroke-width="1.8" stroke-linecap="round" stroke-linejoin="round"/></symbol>

<symbol id="icon-search" viewBox="0 0 24 24"><circle cx="11" cy="11" r="6.5" fill="none" stroke="currentColor" stroke-width="1.8"/><path d="M20 20l-4.3-4.3" fill="none" stroke="currentColor" stroke-width="1.8" stroke-linecap="round"/></symbol>

<symbol id="icon-chart" viewBox="0 0 24 24"><path d="M4 20V10M11 20V4M18 20v-7" fill="none" stroke="currentColor" stroke-width="1.8" stroke-linecap="round"/><path d="M3 20h18" fill="none" stroke="currentColor" stroke-width="1.8" stroke-linecap="round"/></symbol>

<symbol id="icon-compass" viewBox="0 0 24 24"><circle cx="12" cy="12" r="9" fill="none" stroke="currentColor" stroke-width="1.8"/><path d="M15 9l-2 6-6 2 2-6 6-2Z" fill="none" stroke="currentColor" stroke-width="1.6" stroke-linejoin="round"/></symbol>

<symbol id="icon-ruler" viewBox="0 0 24 24"><path d="M3 16.5L16.5 3l4.5 4.5L7.5 21 3 16.5Z" fill="none" stroke="currentColor" stroke-width="1.8" stroke-linejoin="round"/><path d="M8 12l2 2M11 9l2 2M14 6l2 2" fill="none" stroke="currentColor" stroke-width="1.6" stroke-linecap="round"/></symbol>

<symbol id="icon-gear" viewBox="0 0 24 24"><circle cx="12" cy="12" r="3.2" fill="none" stroke="currentColor" stroke-width="1.8"/><path d="M12 3v2.4M12 18.6V21M21 12h-2.4M5.4 12H3M18 6l-1.7 1.7M7.7 16.3L6 18M18 18l-1.7-1.7M7.7 7.7L6 6" fill="none" stroke="currentColor" stroke-width="1.8" stroke-linecap="round"/></symbol>

<symbol id="icon-cross" viewBox="0 0 24 24"><rect x="3" y="7" width="18" height="12" rx="2" fill="none" stroke="currentColor" stroke-width="1.8"/><path d="M12 10v6M9 13h6" fill="none" stroke="currentColor" stroke-width="1.8" stroke-linecap="round"/><path d="M8 7V5.5A1.5 1.5 0 019.5 4h5A1.5 1.5 0 0116 5.5V7" fill="none" stroke="currentColor" stroke-width="1.8"/></symbol>

<symbol id="icon-file" viewBox="0 0 24 24"><path d="M6 3h8l5 5v13a1 1 0 01-1 1H6a1 1 0 01-1-1V4a1 1 0 011-1Z" fill="none" stroke="currentColor" stroke-width="1.8" stroke-linejoin="round"/><path d="M14 3v5h5M8 13h8M8 17h8" fill="none" stroke="currentColor" stroke-width="1.6" stroke-linecap="round"/></symbol>

<symbol id="icon-tree" viewBox="0 0 24 24"><path d="M12 3l5 7h-3l4 6h-4v5h-4v-5H6l4-6H7l5-7Z" fill="none" stroke="currentColor" stroke-width="1.6" stroke-linejoin="round"/></symbol>

<symbol id="icon-target" viewBox="0 0 24 24"><circle cx="12" cy="12" r="8.5" fill="none" stroke="currentColor" stroke-width="1.8"/><circle cx="12" cy="12" r="4.5" fill="none" stroke="currentColor" stroke-width="1.8"/><circle cx="12" cy="12" r="0.8" fill="currentColor" stroke="none"/></symbol>

<symbol id="icon-check-circle" viewBox="0 0 24 24"><circle cx="12" cy="12" r="9" fill="none" stroke="currentColor" stroke-width="1.8"/><path d="M8 12.5l2.5 2.5L16 9.5" fill="none" stroke="currentColor" stroke-width="1.8" stroke-linecap="round" stroke-linejoin="round"/></symbol>

<symbol id="icon-book" viewBox="0 0 24 24"><path d="M4 5.5C4 4.7 4.7 4 5.5 4H12v16H5.5A1.5 1.5 0 014 18.5v-13Z" fill="none" stroke="currentColor" stroke-width="1.8" stroke-linejoin="round"/><path d="M20 5.5c0-.8-.7-1.5-1.5-1.5H12v16h6.5a1.5 1.5 0 001.5-1.5v-13Z" fill="none" stroke="currentColor" stroke-width="1.8" stroke-linejoin="round"/></symbol>

<symbol id="icon-megaphone" viewBox="0 0 24 24"><path d="M3 11v2a2 2 0 002 2h1l2 5h2l-1-5h2l7 4V6l-7 4H6a2 2 0 00-2 2Z" fill="none" stroke="currentColor" stroke-width="1.6" stroke-linejoin="round"/></symbol>

<symbol id="icon-map" viewBox="0 0 24 24"><path d="M9 4L3 6.5v14L9 18l6 2.5 6-2.5v-14L15 6.5 9 4Z" fill="none" stroke="currentColor" stroke-width="1.7" stroke-linejoin="round"/><path d="M9 4v14M15 6.5v14" fill="none" stroke="currentColor" stroke-width="1.7"/></symbol>

<symbol id="icon-database" viewBox="0 0 24 24"><ellipse cx="12" cy="5.5" rx="8" ry="3" fill="none" stroke="currentColor" stroke-width="1.8"/><path d="M4 5.5v6c0 1.7 3.6 3 8 3s8-1.3 8-3v-6M4 11.5v6c0 1.7 3.6 3 8 3s8-1.3 8-3v-6" fill="none" stroke="currentColor" stroke-width="1.8" stroke-linecap="round"/></symbol>

<symbol id="icon-handshake" viewBox="0 0 24 24"><path d="M2 12l5-4 4 2 3-2 5 1 3 3-3 3-2-1-3 3-4-1-3-3-2 1-3-1Z" fill="none" stroke="currentColor" stroke-width="1.5" stroke-linejoin="round"/></symbol>

<symbol id="icon-bulb" viewBox="0 0 24 24"><path d="M9 18h6M10 21h4M12 3a6 6 0 00-3.5 10.9c.6.5 1 1.2 1 2.1h5c0-.9.4-1.6 1-2.1A6 6 0 0012 3Z" fill="none" stroke="currentColor" stroke-width="1.7" stroke-linejoin="round" stroke-linecap="round"/></symbol>

<symbol id="icon-eye" viewBox="0 0 24 24"><path d="M2 12s3.5-6.5 10-6.5S22 12 22 12s-3.5 6.5-10 6.5S2 12 2 12Z" fill="none" stroke="currentColor" stroke-width="1.8" stroke-linejoin="round"/><circle cx="12" cy="12" r="2.8" fill="none" stroke="currentColor" stroke-width="1.8"/></symbol>

<symbol id="icon-puzzle" viewBox="0 0 24 24"><path d="M4 9h3.2a1.8 1.8 0 113.4 0H14v3.2a1.8 1.8 0 110 3.4V19H10.6a1.8 1.8 0 10-3.4 0H4v-3.6a1.8 1.8 0 000-3.6V9Z" fill="none" stroke="currentColor" stroke-width="1.5" stroke-linejoin="round"/></symbol>

<symbol id="icon-network" viewBox="0 0 24 24"><circle cx="5" cy="6" r="2.3" fill="none" stroke="currentColor" stroke-width="1.6"/><circle cx="19" cy="6" r="2.3" fill="none" stroke="currentColor" stroke-width="1.6"/><circle cx="12" cy="18" r="2.3" fill="none" stroke="currentColor" stroke-width="1.6"/><path d="M6.9 7.6L11 16M17.1 7.6L13 16M7.3 6h9.4" fill="none" stroke="currentColor" stroke-width="1.6" stroke-linecap="round"/></symbol>

<symbol id="icon-star" viewBox="0 0 24 24"><path d="M12 3.5l2.6 5.4 5.9.8-4.3 4.1 1 5.9-5.2-2.8-5.2 2.8 1-5.9L3.5 9.7l5.9-.8L12 3.5Z" fill="none" stroke="currentColor" stroke-width="1.6" stroke-linejoin="round"/></symbol>

<symbol id="icon-mail" viewBox="0 0 24 24"><rect x="3" y="5" width="18" height="14" rx="2" fill="none" stroke="currentColor" stroke-width="1.8"/><path d="M3.5 6.5L12 13l8.5-6.5" fill="none" stroke="currentColor" stroke-width="1.8" stroke-linecap="round" stroke-linejoin="round"/></symbol>

<symbol id="icon-phone" viewBox="0 0 24 24"><path d="M5.5 3.5h3l1.5 4-2 1.5a11 11 0 006 6l1.5-2 4 1.5v3c0 1-1 1.8-2 1.7C9 18.5 5.5 15 4.8 7.5c-.1-1 .7-2 1.7-2Z" fill="none" stroke="currentColor" stroke-width="1.7" stroke-linejoin="round"/></symbol>

<symbol id="icon-pin" viewBox="0 0 24 24"><path d="M12 21s-7-6.2-7-11.5a7 7 0 0114 0C19 14.8 12 21 12 21Z" fill="none" stroke="currentColor" stroke-width="1.8" stroke-linejoin="round"/><circle cx="12" cy="9.5" r="2.4" fill="none" stroke="currentColor" stroke-width="1.8"/></symbol>

<symbol id="icon-clock" viewBox="0 0 24 24"><circle cx="12" cy="12" r="9" fill="none" stroke="currentColor" stroke-width="1.8"/><path d="M12 7v5l3.5 2" fill="none" stroke="currentColor" stroke-width="1.8" stroke-linecap="round" stroke-linejoin="round"/></symbol>

<symbol id="icon-arrow-right" viewBox="0 0 24 24"><path d="M4 12h15M13 6l6 6-6 6" fill="none" stroke="currentColor" stroke-width="1.9" stroke-linecap="round" stroke-linejoin="round"/></symbol>

<symbol id="icon-chevron-down" viewBox="0 0 24 24"><path d="M5 8.5L12 15l7-6.5" fill="none" stroke="currentColor" stroke-width="1.9" stroke-linecap="round" stroke-linejoin="round"/></symbol>

<symbol id="icon-linkedin" viewBox="0 0 24 24"><rect x="3" y="3" width="18" height="18" rx="3" fill="none" stroke="currentColor" stroke-width="1.6"/><path d="M7.5 10v6.5M7.5 7.6v.1M11.5 16.5V12.7c0-1.5 1-2.4 2.2-2.4 1.2 0 2 .8 2 2.4v3.8" fill="none" stroke="currentColor" stroke-width="1.6" stroke-linecap="round" stroke-linejoin="round"/></symbol>

<symbol id="icon-facebook" viewBox="0 0 24 24"><rect x="3" y="3" width="18" height="18" rx="3" fill="none" stroke="currentColor" stroke-width="1.6"/><path d="M14 21v-6.5h2l.4-2.7H14V9.8c0-.9.3-1.5 1.6-1.5H16.5V5.9c-.3 0-1.2-.1-2.3-.1-2.3 0-3.9 1.4-3.9 4v2.2H8v2.7h2.3V21" fill="none" stroke="currentColor" stroke-width="1.4" stroke-linejoin="round"/></symbol>

<symbol id="icon-menu" viewBox="0 0 24 24"><path d="M4 7h16M4 12h16M4 17h16" fill="none" stroke="currentColor" stroke-width="1.9" stroke-linecap="round"/></symbol>

<symbol id="icon-close" viewBox="0 0 24 24"><path d="M6 6l12 12M18 6L6 18" fill="none" stroke="currentColor" stroke-width="1.9" stroke-linecap="round"/></symbol>

<symbol id="icon-check" viewBox="0 0 24 24"><path d="M5 12.5l4.5 4.5L19 7" fill="none" stroke="currentColor" stroke-width="2.2" stroke-linecap="round" stroke-linejoin="round"/></symbol>

<symbol id="icon-users" viewBox="0 0 24 24"><circle cx="8.5" cy="8" r="3" fill="none" stroke="currentColor" stroke-width="1.7"/><path d="M2.8 19c.6-3 2.8-4.8 5.7-4.8s5.1 1.8 5.7 4.8" fill="none" stroke="currentColor" stroke-width="1.7" stroke-linecap="round"/><circle cx="16.5" cy="8.5" r="2.3" fill="none" stroke="currentColor" stroke-width="1.7"/><path d="M14.7 14.6c2.6.3 4.4 2 4.9 4.4" fill="none" stroke="currentColor" stroke-width="1.7" stroke-linecap="round"/></symbol>

<symbol id="icon-briefcase" viewBox="0 0 24 24"><rect x="3" y="8" width="18" height="11" rx="2" fill="none" stroke="currentColor" stroke-width="1.8"/><path d="M8 8V6a2 2 0 012-2h4a2 2 0 012 2v2M3 13h18" fill="none" stroke="currentColor" stroke-width="1.8" stroke-linecap="round" stroke-linejoin="round"/></symbol>

</defs>
</svg>
